<?xml version="1.0" encoding="iso-8859-1"?>
<!-- Generator: Adobe Illustrator 19.0.0, SVG Export Plug-In . SVG Version: 6.00 Build 0)  -->
<svg version="1.1" id="Capa_1" xmlns="http://www.w3.org/2000/svg" xmlns:xlink="http://www.w3.org/1999/xlink" x="0px" y="0px"
	 viewBox="0 0 459.2 459.2" style="enable-background:new 0 0 459.2 459.2;" xml:space="preserve">
<g>
	<path style="fill:#A3CB6F;" d="M258.227,368c-4.8,0-8.8-0.8-12-4c-7.2-7.2-3.2-22.4-0.8-30.4c4-11.2,9.6-21.6,17.6-30.4
		c13.6-12,30.4-19.2,48-20.8c4.8,0,8.8,0.8,12,4c7.2,7.2,3.2,22.4,0.8,30.4c-4,11.2-9.6,21.6-17.6,30.4
		C293.427,359.2,276.627,366.4,258.227,368z"/>
	<path style="fill:#A3CB6F;" d="M200.627,368c-17.6-1.6-34.4-8.8-48-20.8c-8-8.8-13.6-19.2-17.6-30.4c-3.2-8-6.4-23.2,0.8-30.4
		c3.2-3.2,8-4.8,12-4c17.6,1.6,34.4,8.8,48,20.8c8,8.8,13.6,18.4,17.6,29.6c3.2,8,6.4,23.2-0.8,30.4
		C209.427,367.2,204.627,368.8,200.627,368z"/>
	<path style="fill:#A3CB6F;" d="M200.627,173.6c-17.6-1.6-34.4-8.8-48-20.8c-8-8.8-13.6-19.2-17.6-30.4c-3.2-8-6.4-23.2,0.8-30.4
		c3.2-3.2,8-4.8,12-4c17.6,1.6,34.4,8.8,48,20.8c8,8.8,13.6,19.2,17.6,30.4c3.2,8,6.4,23.2-0.8,30.4
		C209.427,172.8,204.627,174.4,200.627,173.6z"/>
	<path style="fill:#A3CB6F;" d="M200.627,271.2c-17.6-1.6-34.4-8.8-48-20.8c-8-8.8-13.6-19.2-17.6-30.4c-3.2-8-6.4-23.2,0.8-30.4
		c3.2-3.2,8-4.8,12-4c17.6,1.6,34.4,8.8,48,20.8c8,8.8,13.6,19.2,17.6,30.4c3.2,8,6.4,23.2-0.8,30.4
		C209.427,269.6,204.627,271.2,200.627,271.2z"/>
	<path style="fill:#A3CB6F;" d="M258.227,173.6c-4.8,0-8.8-0.8-12-4c-7.2-7.2-3.2-22.4-0.8-30.4c4-11.2,9.6-20.8,17.6-29.6
		c13.6-12,30.4-19.2,48-20.8c4.8,0,8.8,0.8,12,4c7.2,7.2,3.2,22.4,0.8,30.4c-4,11.2-9.6,21.6-17.6,30.4
		C293.427,164.8,276.627,172,258.227,173.6z"/>
	<path style="fill:#A3CB6F;" d="M258.227,271.2c-4.8,0-8.8-0.8-12-4c-7.2-7.2-3.2-22.4-0.8-30.4c4-11.2,9.6-21.6,17.6-30.4
		c13.6-12,30.4-19.2,48-20.8c4.8,0,8.8,0.8,12,4c7.2,7.2,3.2,22.4,0.8,30.4c-4,11.2-9.6,21.6-17.6,30.4
		C293.427,261.6,276.627,269.6,258.227,271.2z"/>
</g>
<g>
	<path style="fill:#92B762;" d="M323.827,288c-4,11.2-9.6,21.6-17.6,30.4c-13.6,12-30.4,19.2-48,20.8c-4.8,0-8.8-0.8-12-4
		c0,0,0-0.8-0.8-0.8c-3.2,8-6.4,23.2,0.8,30.4c3.2,3.2,8,4.8,12,4c17.6-1.6,34.4-8.8,48-20.8c8-8.8,13.6-19.2,17.6-30.4
		C327.027,308.8,330.227,294.4,323.827,288L323.827,288z"/>
	<path style="fill:#92B762;" d="M212.627,335.2c-3.2,3.2-8,4.8-12,4c-17.6-1.6-34.4-8.8-48-20.8c-8-8.8-13.6-19.2-17.6-30.4l0,0
		c-6.4,7.2-2.4,21.6,0,29.6c4,11.2,9.6,21.6,17.6,30.4c13.6,12,30.4,19.2,48,20.8c4.8,0,8.8-0.8,12-4
		C219.827,356.8,215.827,342.4,212.627,335.2C212.627,334.4,212.627,334.4,212.627,335.2z"/>
	<path style="fill:#92B762;" d="M212.627,140.8c-3.2,3.2-8,4.8-12,4c-17.6-1.6-34.4-8.8-48-20.8c-8-8.8-13.6-19.2-17.6-29.6l0,0
		c-6.4,7.2-2.4,21.6,0,29.6c4,11.2,9.6,21.6,17.6,30.4c13.6,12,30.4,19.2,48,20.8c4.8,0,8.8-0.8,12-4
		C219.827,163.2,215.827,148,212.627,140.8C212.627,140,212.627,140,212.627,140.8z"/>
	<path style="fill:#92B762;" d="M212.627,237.6c-3.2,3.2-8,4.8-12,4c-17.6-1.6-34.4-8.8-48-20.8c-8-8.8-13.6-19.2-17.6-30.4l0,0
		c-6.4,7.2-2.4,21.6,0,29.6c4,11.2,9.6,21.6,17.6,30.4c13.6,12,30.4,19.2,48,20.8c4.8,0,8.8-0.8,12-4
		C219.827,260,215.827,245.6,212.627,237.6C212.627,236.8,212.627,237.6,212.627,237.6z"/>
	<path style="fill:#92B762;" d="M323.827,93.6c-4,11.2-9.6,21.6-17.6,30.4c-13.6,12-30.4,19.2-48,20.8c-4.8,0-8.8-0.8-12-4
		c0,0,0-0.8-0.8-0.8c-3.2,8-6.4,23.2,0.8,30.4c3.2,3.2,8,4.8,12,4c17.6-1.6,34.4-8.8,48-20.8c8-8.8,13.6-19.2,17.6-30.4
		C327.027,115.2,330.227,100.8,323.827,93.6L323.827,93.6z"/>
	<path style="fill:#92B762;" d="M323.827,190.4c-4,11.2-9.6,21.6-17.6,30.4c-13.6,12-30.4,19.2-48,20.8c-4.8,0-8.8-0.8-12.8-4
		c0,0,0-0.8-0.8-0.8c-3.2,8-6.4,23.2,0.8,30.4c3.2,3.2,8,4.8,12,4c17.6-1.6,34.4-8.8,48-20.8c8-8.8,13.6-19.2,17.6-30.4
		C327.027,212,330.227,197.6,323.827,190.4L323.827,190.4z"/>
</g>
<g>
	<path style="fill:#4A2328;" d="M311.027,80c-20,1.6-39.2,10.4-53.6,23.2c-13.6,13.6-34.4,54.4-16.8,72c4.8,4.8,11.2,7.2,17.6,6.4
		c20-1.6,39.2-10.4,53.6-23.2c13.6-13.6,34.4-54.4,16.8-72C324.627,82.4,318.227,80,311.027,80z M316.627,120
		c-3.2,9.6-8.8,19.2-16,27.2c-12,10.4-26.4,16.8-42.4,18.4c-2.4,0-4.8,0-6.4-1.6c-2.4-2.4-2.4-10.4,1.6-21.6
		c3.2-9.6,8.8-19.2,16-27.2c12-10.4,26.4-16.8,42.4-18.4c2.4,0,4.8,0,6.4,1.6C319.827,100.8,320.627,108,316.627,120L316.627,120z"
		/>
	<path style="fill:#4A2328;" d="M311.027,177.6c-20,1.6-39.2,10.4-53.6,23.2c-13.6,13.6-34.4,54.4-16.8,72
		c4.8,4.8,11.2,7.2,17.6,6.4c20-1.6,39.2-10.4,53.6-23.2c13.6-13.6,34.4-54.4,16.8-72C324.627,179.2,318.227,176.8,311.027,177.6z
		 M316.627,217.6c-3.2,9.6-8.8,19.2-16,27.2c-12,10.4-26.4,16.8-42.4,18.4c-2.4,0-4.8,0-6.4-1.6c-2.4-2.4-2.4-10.4,1.6-21.6
		c3.2-9.6,8.8-19.2,16-27.2c12-10.4,26.4-16.8,42.4-18.4c2.4,0,4.8,0,6.4,1.6C319.827,197.6,320.627,205.6,316.627,217.6
		L316.627,217.6z"/>
	<path style="fill:#4A2328;" d="M311.027,274.4c-20,1.6-39.2,10.4-53.6,23.2c-13.6,13.6-34.4,54.4-16.8,72
		c4.8,4.8,11.2,7.2,17.6,6.4c20-1.6,39.2-10.4,53.6-23.2c13.6-13.6,34.4-54.4,16.8-72C324.627,276.8,318.227,274.4,311.027,274.4z
		 M316.627,314.4c-3.2,9.6-8.8,19.2-15.2,27.2c-12,10.4-26.4,16.8-42.4,18.4c-2.4,0-4.8,0-6.4-1.6c-2.4-2.4-2.4-10.4,1.6-21.6
		c3.2-9.6,8.8-19.2,16-27.2c12-10.4,26.4-16.8,42.4-18.4c2.4,0,4.8,0,6.4,1.6C319.827,295.2,320.627,302.4,316.627,314.4
		L316.627,314.4z"/>
	<path style="fill:#4A2328;" d="M200.627,181.6c6.4,0.8,12.8-1.6,17.6-6.4c16.8-16.8-3.2-58.4-16.8-72
		c-15.2-13.6-33.6-21.6-53.6-23.2c-6.4-0.8-12.8,1.6-17.6,6.4c-16.8,16.8,3.2,58.4,16.8,72C161.427,171.2,180.627,180,200.627,181.6
		z M140.627,98.4c1.6-1.6,4-1.6,6.4-1.6c16,1.6,30.4,8,42.4,18.4c7.2,8,12,17.6,15.2,27.2c4,12,4,19.2,1.6,21.6
		c-1.6,1.6-4,1.6-6.4,1.6c-16-1.6-30.4-8-42.4-18.4c-7.2-8-12-17.6-16-27.2C138.227,108,138.227,100.8,140.627,98.4z"/>
	<path style="fill:#4A2328;" d="M200.627,279.2c6.4,0.8,12.8-1.6,17.6-6.4c16.8-16.8-3.2-58.4-16.8-72
		c-15.2-13.6-33.6-21.6-53.6-23.2c-6.4-0.8-12.8,1.6-17.6,6.4c-16.8,16.8,3.2,58.4,16.8,72
		C161.427,268.8,180.627,277.6,200.627,279.2z M140.627,195.2c1.6-1.6,4-1.6,6.4-1.6c16,1.6,30.4,8,42.4,18.4
		c7.2,8,12,17.6,15.2,27.2c4,12,4,19.2,1.6,21.6c-1.6,1.6-4,1.6-6.4,1.6c-16-1.6-30.4-8-42.4-18.4c-7.2-8-12-17.6-16-27.2
		C138.227,205.6,138.227,197.6,140.627,195.2z"/>
	<path style="fill:#4A2328;" d="M201.427,298.4c-15.2-13.6-33.6-21.6-53.6-23.2c-6.4-0.8-12.8,1.6-17.6,6.4
		c-16.8,16.8,3.2,58.4,16.8,72c15.2,13.6,33.6,21.6,53.6,23.2c6.4,0.8,12.8-1.6,17.6-6.4C235.027,352.8,215.027,312,201.427,298.4z
		 M207.027,358.4c-1.6,1.6-4,1.6-6.4,1.6c-16-1.6-30.4-8-42.4-18.4c-7.2-8-12-17.6-16-27.2c-4-12-4-19.2-1.6-21.6
		c1.6-1.6,4-1.6,6.4-1.6c16,1.6,30.4,8,42.4,19.2c7.2,8,12,16.8,15.2,27.2C209.427,348.8,209.427,356,207.027,358.4z"/>
	<path style="fill:#4A2328;" d="M228.627,376c-4.8,0-8,3.2-8,8v67.2c0,4.8,3.2,8,8,8s8-3.2,8-8V384
		C236.627,380,232.627,376,228.627,376z"/>
	<path style="fill:#4A2328;" d="M185.427,83.2c4.8,0,8-3.2,8-8V8c0-4.8-3.2-8-8-8s-8,3.2-8,8v67.2
		C177.427,79.2,180.627,83.2,185.427,83.2z"/>
	<path style="fill:#4A2328;" d="M228.627,107.2c4.8,0,8-3.2,8-8V32c0-4.8-3.2-8-8-8s-8,3.2-8,8v67.2
		C220.627,103.2,223.827,107.2,228.627,107.2z"/>
	<path style="fill:#4A2328;" d="M271.027,83.2c4.8,0,8-3.2,8-8V8c0-4.8-3.2-8-8-8s-8,3.2-8,8v67.2
		C263.027,79.2,267.027,83.2,271.027,83.2z"/>
</g>
<g>
</g>
<g>
</g>
<g>
</g>
<g>
</g>
<g>
</g>
<g>
</g>
<g>
</g>
<g>
</g>
<g>
</g>
<g>
</g>
<g>
</g>
<g>
</g>
<g>
</g>
<g>
</g>
<g>
</g>
</svg>
